HIERARCHY
ROOT Hips
{
	OFFSET 0.000000 0.000000 0.000000
	CHANNELS 6 Xposition Yposition Zposition Zrotation Yrotation Xrotation 
	JOINT LowerBack
	{
		OFFSET 0.000000 0.000000 0.000000
		CHANNELS 3 Zrotation Yrotation Xrotation
		JOINT Spine
		{
			OFFSET 0.028270 2.035590 -0.193380
			CHANNELS 3 Zrotation Yrotation Xrotation
			JOINT Spine1
			{
				OFFSET 0.056720 2.048850 -0.042750
				CHANNELS 3 Zrotation Yrotation Xrotation
				JOINT Neck
				{
					OFFSET 0.000000 0.000000 0.000000
					CHANNELS 3 Zrotation Yrotation Xrotation
					JOINT Neck1
					{
						OFFSET -0.054170 1.746240 0.172020
						CHANNELS 3 Zrotation Yrotation Xrotation
						JOINT Head
						{
							OFFSET 0.104070 1.761360 -0.123970
							CHANNELS 3 Zrotation Yrotation Xrotation
							End Site
							{
								OFFSET 0.000000 0.000000 0.000000
							}
						}
					}
				}
				JOINT LeftShoulder
				{
					OFFSET 0.000000 0.000000 0.000000
					CHANNELS 3 Zrotation Yrotation Xrotation
					JOINT LeftArm
					{
						OFFSET 3.362410 1.200890 -0.311210
						CHANNELS 3 Zrotation Yrotation Xrotation
						JOINT LeftForeArm
						{
							OFFSET 4.983000 -0.000000 -0.000000
							CHANNELS 3 Zrotation Yrotation Xrotation
							JOINT LeftHand
							{
								OFFSET 3.483560 -0.000000 -0.000000
								CHANNELS 3 Zrotation Yrotation Xrotation
								JOINT LeftFingerBase
								{
									OFFSET 0.000000 0.000000 0.000000
									CHANNELS 3 Zrotation Yrotation Xrotation
									JOINT LeftHandIndex1
									{
										OFFSET 0.715260 -0.000000 -0.000000
										CHANNELS 3 Zrotation Yrotation Xrotation
										End Site
										{
											OFFSET 0.000000 0.000000 0.000000
										}
									}
								}
								JOINT LThumb
								{
									OFFSET 0.000000 0.000000 0.000000
									CHANNELS 3 Zrotation Yrotation Xrotation
									End Site
									{
										OFFSET 0.000000 0.000000 0.000000
									}
								}
							}
						}
					}
				}
				JOINT RightShoulder
				{
					OFFSET 0.000000 0.000000 0.000000
					CHANNELS 3 Zrotation Yrotation Xrotation
					JOINT RightArm
					{
						OFFSET -3.136600 1.374050 -0.404650
						CHANNELS 3 Zrotation Yrotation Xrotation
						JOINT RightForeArm
						{
							OFFSET -5.241900 -0.000000 -0.000000
							CHANNELS 3 Zrotation Yrotation Xrotation
							JOINT RightHand
							{
								OFFSET -3.444170 -0.000000 -0.000000
								CHANNELS 3 Zrotation Yrotation Xrotation
								JOINT RightFingerBase
								{
									OFFSET 0.000000 0.000000 0.000000
									CHANNELS 3 Zrotation Yrotation Xrotation
									JOINT RightHandIndex1
									{
										OFFSET -0.622530 -0.000000 -0.000000
										CHANNELS 3 Zrotation Yrotation Xrotation
										End Site
										{
											OFFSET 0.000000 0.000000 0.000000
										}
									}
								}
								JOINT RThumb
								{
									OFFSET 0.000000 0.000000 0.000000
									CHANNELS 3 Zrotation Yrotation Xrotation
									End Site
									{
										OFFSET 0.000000 0.000000 0.000000
									}
								}
							}
						}
					}
				}
			}
		}
	}
}
}
MOTION
Frames: 7
Frame Time: 0.008333
1.399773 16.606642 -0.408957 -3.627319 80.196634 -0.076931 -3.824844 2.896255 -1.694171 -1.069592 3.092506 -3.640316 -3.568672 2.944692 -1.226127 3.547068 -3.964360 -9.303322 -0.981121 -0.058452 -0.417173 0.000000 0.000000 0.000000 -7.913595 19.329570 3.126433 -70.015859 39.340867 -10.655308 -5.236081 -2.657195 -0.023992 1.821545 10.036038 0.174277 -0.150809 -0.112424 -0.000000 0.000000 0.000000 0.000000 0.000000 0.000000 0.000000 -1.870414 3.483665 -0.936677 23.426156 45.926635 1.477959 -0.392113 68.408355 -0.006312 0.604476 4.111944 0.029718 -0.147566 -0.478832 -0.000000 0.000000 0.000000 0.000000 0.000000 0.000000 0.000000 
1.563544 16.532101 -0.443149 -2.058701 80.115897 1.281476 -4.248922 2.717554 -1.427172 -1.176750 2.941962 -3.616355 -3.725377 2.795725 -1.307576 4.054494 -3.745685 -9.315193 -1.093062 -0.066852 -0.428221 0.000000 0.000000 0.000000 -7.863643 19.017917 3.255151 -70.757197 38.998125 -9.278867 -5.238987 -3.071442 -0.026678 1.091567 10.923352 0.118639 -0.145239 -0.114752 -0.000000 0.000000 0.000000 0.000000 0.000000 0.000000 0.000000 -0.965020 3.774012 -0.880614 23.926146 46.054338 0.803256 -0.378423 68.441143 -0.006708 0.593098 4.209585 0.030136 -0.149963 -0.487394 -0.000000 0.000000 0.000000 0.000000 0.000000 0.000000 0.000000 
1.721730 16.456480 -0.477773 -0.450181 80.040937 2.701045 -4.663749 2.519064 -1.131465 -1.280668 2.771582 -3.588094 -3.883222 2.627923 -1.397352 4.540916 -3.479055 -9.323560 -1.216436 -0.076149 -0.439863 0.000000 0.000000 0.000000 -7.879190 18.720397 3.389272 -71.416230 38.486172 -7.570919 -5.227142 -3.625022 -0.029127 0.243582 11.752549 0.038706 -0.138680 -0.116448 -0.000000 0.000000 0.000000 0.000000 0.000000 0.000000 0.000000 -0.046773 4.126771 -0.819800 24.563792 46.154645 0.128179 -0.363219 68.517505 -0.007093 0.598992 4.344523 0.031457 -0.152892 -0.496761 -0.000000 0.000000 0.000000 0.000000 0.000000 0.000000 0.000000 
1.874776 16.381401 -0.513182 1.171414 79.979436 4.156777 -5.061860 2.304964 -0.813914 -1.380139 2.585076 -3.556317 -4.040741 2.445043 -1.493346 4.999780 -3.174245 -9.326767 -1.350622 -0.086316 -0.451623 0.000000 0.000000 0.000000 -7.945746 18.439640 3.525745 -71.959206 37.774672 -5.624057 -5.196720 -4.251455 -0.031103 -0.661091 12.464293 -0.059520 -0.131458 -0.116973 -0.000000 0.000000 0.000000 0.000000 0.000000 0.000000 0.000000 0.875975 4.532441 -0.754922 25.363749 46.203944 -0.527973 -0.346190 68.649734 -0.007661 0.596906 4.524562 0.032783 -0.155811 -0.507027 -0.000000 0.000000 0.000000 0.000000 0.000000 0.000000 0.000000 
2.023495 16.308624 -0.549707 2.788850 79.937279 5.636433 -5.439516 2.080017 -0.487170 -1.475138 2.386829 -3.520600 -4.196916 2.251604 -1.583735 5.434225 -2.858867 -9.331389 -1.495405 -0.097232 -0.465358 0.000000 0.000000 0.000000 -8.023028 18.207157 3.662943 -72.361094 36.791135 -3.532914 -5.143068 -4.843364 -0.032324 -1.537008 12.997025 -0.163636 -0.123867 -0.115825 -0.000000 0.000000 0.000000 0.000000 0.000000 0.000000 0.000000 1.811888 4.964462 -0.689217 26.319754 46.199206 -1.137567 -0.328037 68.841849 -0.008855 0.532952 4.761196 0.031518 -0.157733 -0.518390 0.000000 0.000000 0.000000 0.000000 0.000000 0.000000 0.000000 
2.168786 16.240107 -0.587693 4.367084 79.919200 7.110667 -5.786381 1.853325 -0.166505 -1.564221 2.185160 -3.484562 -4.350371 2.055650 -1.670566 5.837445 -2.535514 -9.331587 -1.648837 -0.108838 -0.479179 0.000000 0.000000 0.000000 -8.108747 18.003356 3.796265 -72.607509 35.546186 -1.402603 -5.067566 -5.376342 -0.032639 -2.310018 13.322512 -0.259638 -0.116209 -0.112664 -0.000000 0.000000 0.000000 0.000000 0.000000 0.000000 0.000000 2.742149 5.419314 -0.622235 27.476427 46.083286 -1.680072 -0.306703 69.118806 -0.010871 0.383348 5.057489 0.026162 -0.157954 -0.530783 0.000000 0.000000 0.000000 0.000000 0.000000 0.000000 0.000000 
2.311754 16.177804 -0.627408 5.880178 79.930055 8.562186 -6.096129 1.633222 0.129861 -1.646819 1.987807 -3.450320 -4.499607 1.864701 -1.747215 6.209012 -2.220262 -9.329778 -1.808497 -0.120903 -0.493530 0.000000 0.000000 0.000000 -8.179305 17.838225 3.923398 -72.694461 34.011611 0.667087 -4.971134 -5.798976 -0.031908 -2.895469 13.420667 -0.331824 -0.108702 -0.107209 -0.000000 0.000000 0.000000 0.000000 0.000000 0.000000 0.000000 3.656019 5.879656 -0.557201 28.851432 45.816395 -2.135034 -0.281189 69.494682 -0.014011 0.111374 5.417802 0.013717 -0.155622 -0.544133 0.000000 0.000000 0.000000 0.000000 0.000000 0.000000 0.000000 
